:SAMPLES-PER-SECOND 30
:FRAME-RANGE 1-3549
:FULLY-SPECIFIED
:DEGREES
1110
root  -11.4281 38.9463 37.4137 -176.803 0.0686035 -179.764
RightUpLeg  -16.738 -18.2111 -1.32675
RightLeg  24.5917 -14.397 -7.29939
RightFoot  -10.1777 -0.12778 5.7669
RightToes  -1.11029e-010 1.2921e-014 -6.02303e-014
Spine  7.08579 1.91757 9.5336
Spine1  -5.03748 3.72787 -8.7222
HEad  3.56242 -3.45494 0.680213
LeftShoulder1  0.733642 1.76519 -36.0563
LeftArm  -17.5905 33.3175 -34.3503
LeftForeArm  0.49811 1.745 -16.0711
LeftHand  -0.0285741 5.24439 -0.0219979
RightShoulder  7.08501 8.16151 53.1358
RightArm  12.9368 2.24422 10.9231
RightForeArm  25.4975 -3.67967 17.7259
RightHand  -0.244441 5.73057 -2.87224
LeftUpLeg  1.54373 13.6367 15.1123
LeftLeg  7.95099 6.65947 0.30091
LeftFoot  -6.37486 0.815323 -17.8002
LeftToes  -1.9349e-011 -1.19469e-011 -2.02219e-012
1111
root  -10.6359 38.7813 36.9051 -177.159 1.12427 -179.111
RightUpLeg  -16.2769 -17.2689 0.390844
RightLeg  26.1897 -14.2536 -7.72927
RightFoot  -12.2684 -0.0400246 5.34415
RightToes  -1.11029e-010 1.2921e-014 -6.02303e-014
Spine  7.3666 1.89293 10.0587
Spine1  -4.71959 3.62814 -7.12821
HEad  2.33004 -3.12254 -0.410457
LeftShoulder1  0.746256 1.74234 -36.2206
LeftArm  -18.4762 36.5149 -37.8561
LeftForeArm  2.19222 0.998314 -16.0678
LeftHand  -0.0221649 4.58563 -0.470891
RightShoulder  6.18235 6.22895 55.4584
RightArm  -4.26745 -0.825012 9.97351
RightForeArm  27.8741 -6.57939 16.0879
RightHand  -0.126614 3.87284 -1.85056
LeftUpLeg  0.12755 13.7176 16.6386
LeftLeg  13.2247 8.68608 2.58412
LeftFoot  -5.44019 0.996463 -18.5624
LeftToes  -1.9349e-011 -1.19469e-011 -2.02219e-012
1112
root  -9.84929 38.6853 36.4302 -177.382 1.64551 -178.839
RightUpLeg  -15.5052 -16.6909 1.70595
RightLeg  27.0037 -14.0777 -7.89764
RightFoot  -14.0039 0.0144496 4.70665
RightToes  -1.11029e-010 1.2921e-014 -6.02303e-014
Spine  7.76088 1.85524 10.2206
Spine1  -4.46184 3.53133 -5.63277
HEad  1.02956 -3.4347 -0.934762
LeftShoulder1  0.680748 1.88715 -35.9679
LeftArm  -15.9387 37.2136 -38.2715
LeftForeArm  6.24008 -0.0845568 -16.2752
LeftHand  0.0329508 2.52115 -1.94231
RightShoulder  4.12187 2.9922 55.4396
RightArm  -4.18067 -6.63727 10.4016
RightForeArm  19.4333 -6.79465 16.3841
RightHand  -0.118779 2.68349 -1.92004
LeftUpLeg  -2.73491 11.3141 17.3459
LeftLeg  20.1376 13.4853 5.7266
LeftFoot  -1.99513 1.27704 -15.4005
LeftToes  -1.9349e-011 -1.19469e-011 -2.02219e-012
1113
root  -9.1453 38.6736 35.9795 -177.466 1.90088 -178.544
RightUpLeg  -14.3046 -17.1828 2.90506
RightLeg  26.4774 -13.4672 -7.3968
RightFoot  -15.1788 0.0315646 4.01208
RightToes  -1.11029e-010 1.2921e-014 -6.02303e-014
Spine  7.60705 1.54181 11.1949
Spine1  -3.73393 3.30891 -5.05568
HEad  -0.513295 -3.50444 -1.14874
LeftShoulder1  0.674592 1.88758 -35.6077
LeftArm  -12.6869 36.1309 -36.5265
LeftForeArm  8.72641 -1.55292 -16.2619
LeftHand  0.103493 1.10201 -3.00657
RightShoulder  2.20512 0.067902 54.1742
RightArm  12.1557 -12.1171 10.8116
RightForeArm  13.0338 -3.56974 18.3645
RightHand  -0.107205 3.97456 -1.59663
LeftUpLeg  -6.67206 8.73786 17.2596
LeftLeg  27.7253 14.7963 8.60433
LeftFoot  1.39195 0.976483 -8.81598
LeftToes  -1.9349e-011 -1.19469e-011 -2.02219e-012
1114
root  -8.47919 38.7467 35.531 -177.543 2.28973 -178.716
RightUpLeg  -12.583 -16.0447 3.07799
RightLeg  25.2699 -14.6772 -6.5878
RightFoot  -15.9458 0.0498172 3.92602
RightToes  -1.11029e-010 1.2921e-014 -6.02303e-014
Spine  7.39706 0.942884 11.1668
Spine1  -3.30911 2.66436 -4.40582
HEad  -1.44138 -2.70965 -1.0807
LeftShoulder1  0.685276 1.85039 -35.3229
LeftArm  -9.05558 34.3692 -33.9484
LeftForeArm  6.19318 -3.71397 -16.1341
LeftHand  0.105468 1.28812 -3.23252
RightShoulder  1.03202 -1.74488 52.0066
RightArm  35.4817 -15.9444 11.5735
RightForeArm  10.8697 2.152 18.9818
RightHand  -0.278115 5.68476 -3.23383
LeftUpLeg  -10.5999 7.13169 16.0914
LeftLeg  34.0384 8.9839 6.81536
LeftFoot  -0.310358 0.919682 -9.49069
LeftToes  -1.9349e-011 -1.19469e-011 -2.02219e-012
1115
root  -7.84261 38.8833 35.0702 -177.725 3.67291 -179.359
RightUpLeg  -10.4533 -12.536 2.47247
RightLeg  23.5051 -17.182 -5.45653
RightFoot  -16.2846 0.0527756 3.77812
RightToes  -1.11029e-010 1.2921e-014 -6.02303e-014
Spine  7.57942 0.58981 10.7165
Spine1  -3.48229 2.29926 -4.37443
HEad  -1.32494 -1.64196 -0.82019
LeftShoulder1  0.740444 1.70616 -35.0749
LeftArm  -5.72197 31.8896 -30.7088
LeftForeArm  3.4111 -5.29207 -15.964
LeftHand  0.0932928 1.66161 -3.24488
RightShoulder  0.606045 -2.40918 49.6418
RightArm  57.5646 -18.7527 12.0495
RightForeArm  6.06087 7.87465 17.8741
RightHand  -0.487965 5.96806 -5.3072
LeftUpLeg  -13.7127 6.71634 13.807
LeftLeg  38.4435 5.13856 4.72115
LeftFoot  -2.01382 0.827497 -9.97814
LeftToes  -1.9349e-011 -1.19469e-011 -2.02219e-012
